<svg xmlns="http://www.w3.org/2000/svg" xmlns:xlink="http://www.w3.org/1999/xlink" width="65.97" height="57.58" viewBox="0 0 65.97 57.58">
  <defs>
    <linearGradient id="linear-gradient" y1="0.5" x2="1" y2="0.5" gradientUnits="objectBoundingBox">
      <stop offset="0.03" stop-color="#4079d8"/>
      <stop offset="1" stop-color="#4989f5"/>
    </linearGradient>
  </defs>
  <g transform="translate(0 0)">
    <g transform="translate(0 0)">
      <rect width="57.724" height="43.162" rx="2" transform="translate(3.314 14.419)" fill="#4989f5"/>
      <path d="M266.03,22.086h16.493V.44H268.5Z" transform="translate(-249.536 -0.439)" fill="#3c4ba6"/>
      <path d="M548.523,22.086H532.03V.44h14.023ZM560.081,4.543l.02.074C560.1,4.591,560.087,4.567,560.081,4.543Z" transform="translate(-499.043 -0.439)" fill="#7babf7"/>
      <path d="M772.249,4.607l-.021-.074a5.216,5.216,0,0,0-5.093-4.1H758.2l2.468,21.647H777.16Z" transform="translate(-711.19 -0.43)" fill="#3f51b5"/>
      <path d="M79.3,66.62l-.02.074C79.285,66.668,79.295,66.644,79.3,66.62Z" transform="translate(-74.365 -62.516)" fill="#7babf7"/>
      <path d="M4.915,4.607l.02-.074A5.216,5.216,0,0,1,10.028.43h8.936L16.492,22.077H0Z" transform="translate(0 -0.43)" fill="#7babf7"/>
    </g>
    <path d="M17.113,349.47a8.242,8.242,0,1,1-16.483,0Z" transform="translate(-0.591 -327.829)" fill="#709be0" fill-rule="evenodd"/>
    <path d="M282.963,349.47a8.242,8.242,0,1,1-16.483,0Z" transform="translate(-249.958 -327.829)" fill="#3c4ba6" fill-rule="evenodd"/>
    <path d="M548.813,349.47a8.242,8.242,0,0,1-16.483,0Z" transform="translate(-499.325 -327.829)" fill="#709be0" fill-rule="evenodd"/>
    <path d="M814.633,349.47a8.242,8.242,0,0,1-16.483,0Z" transform="translate(-748.663 -327.829)" fill="#3c4ba6" fill-rule="evenodd"/>
    <path d="M648.222,575.083c-.029-.392-.078-.751-.146-1.208h-8.99c0,1.257,0,2.63,0,3.888h5.208a4.529,4.529,0,0,1-1.907,2.907s0-.022,0-.022a5.457,5.457,0,0,1-2.108.823,6.188,6.188,0,0,1-2.281-.01,5.694,5.694,0,0,1-2.127-.922,5.934,5.934,0,0,1-2.091-2.672c-.032-.084-.062-.168-.092-.254V577.6l.008-.006a5.765,5.765,0,0,1,0-3.71,5.97,5.97,0,0,1,1.383-2.251,5.619,5.619,0,0,1,5.662-1.474,5.146,5.146,0,0,1,2.06,1.213l1.757-1.757c.31-.313.632-.616.93-.94a9.287,9.287,0,0,0-3.078-1.906,9.678,9.678,0,0,0-6.438-.056q-.109.037-.217.078a9.62,9.62,0,0,0-5.2,4.657,9.446,9.446,0,0,0-.832,2.4,9.564,9.564,0,0,0,6.9,11.123,10.229,10.229,0,0,0,4.891.051,8.41,8.41,0,0,0,6.333-6.019A11.1,11.1,0,0,0,648.222,575.083Z" transform="translate(-590.493 -531.113)" fill="#fff"/>
  </g>
</svg>
