<svg xmlns="http://www.w3.org/2000/svg" width="59" height="60" viewBox="0 0 59 60">
  <g transform="translate(-0.37 -0.067)">
    <rect width="59" height="60" rx="6" transform="translate(0.37 0.067)" fill="#393dc1"/>
    <g transform="translate(13.256 13.113)">
      <path d="M117.349,633.073a2.447,2.447,0,0,1,1.771.711,2.31,2.31,0,0,1,.732,1.714V664.38a2.244,2.244,0,0,1-.732,1.694,2.437,2.437,0,0,1-1.733.694H88.814a2.429,2.429,0,0,1-1.733-.694,2.241,2.241,0,0,1-.732-1.694V635.5a2.306,2.306,0,0,1,.732-1.714,2.446,2.446,0,0,1,1.771-.711h28.5Zm-21.3,10.185a2.7,2.7,0,0,0,0-3.774,2.8,2.8,0,0,0-2.041-.75,2.869,2.869,0,0,0-2.06.75,2.5,2.5,0,0,0-.789,1.887,2.523,2.523,0,0,0,.77,1.887,2.743,2.743,0,0,0,2,.751h.039A2.844,2.844,0,0,0,96.053,643.258Zm.462,2.831H91.471V661.3h5.045Zm18.215,6.469a7.378,7.378,0,0,0-1.656-5.159,5.981,5.981,0,0,0-7.2-.81,5.964,5.964,0,0,0-1.5,1.657V646.09H99.327q.038.885,0,8.125V661.3h5.045V652.79a3.782,3.782,0,0,1,.154-1.232,3.068,3.068,0,0,1,.924-1.27,2.558,2.558,0,0,1,1.694-.579,2.22,2.22,0,0,1,1.964.963,4.491,4.491,0,0,1,.578,2.466V661.3h5.045Z" transform="translate(-86.349 -633.073)" fill="#fff"/>
    </g>
  </g>
</svg>
