<svg xmlns="http://www.w3.org/2000/svg" width="59" height="60" viewBox="0 0 59 60">
    <defs>
        <style>.a{fill:red;}.b{fill:#fff;}</style>
    </defs>
    <g transform="translate(-0.496 -0.067)">
        <rect fill="red" width="59" height="60" rx="6" transform="translate(0.496 0.067)"/>
        <g transform="translate(17.452 14.827)">
            <path fill="#fff"
                  d="M325.15,779.527a10.577,10.577,0,0,1,4.045,3.827,9.758,9.758,0,0,1,1.459,5.14,15.833,15.833,0,0,1-1.258,6.435,10.746,10.746,0,0,1-3.445,4.464,8.555,8.555,0,0,1-5.176,1.677,5.765,5.765,0,0,1-2.734-.673,3.878,3.878,0,0,1-1.75-1.622l-1.276,5.03a15.461,15.461,0,0,1-1.9,4.01q-.474.765-1.422,2a.281.281,0,0,1-.273.072.178.178,0,0,1-.164-.181,19.929,19.929,0,0,1,.036-6.963l2.37-9.987-.146-.365a6.178,6.178,0,0,1-.292-1.021,7.649,7.649,0,0,1-.146-1.495,5.949,5.949,0,0,1,.475-2.424,4.416,4.416,0,0,1,1.275-1.713,2.8,2.8,0,0,1,1.786-.638,2.226,2.226,0,0,1,1.859.838,2.753,2.753,0,0,1,.584,1.932,8.2,8.2,0,0,1-.292,1.9q-.145.656-.656,2.26-.437,1.494-.657,2.333a2.912,2.912,0,0,0,.109,1.767,2.665,2.665,0,0,0,1.076,1.294,3.084,3.084,0,0,0,1.694.475,4.221,4.221,0,0,0,3.062-1.349,8.843,8.843,0,0,0,2.023-3.517,15.319,15.319,0,0,0,.747-4.866,7.266,7.266,0,0,0-.893-3.627,6.131,6.131,0,0,0-2.569-2.46,8.746,8.746,0,0,0-4.156-.948,9.133,9.133,0,0,0-4.811,1.275,8.237,8.237,0,0,0-3.118,3.171,8.805,8.805,0,0,0-1.111,4.338,5.482,5.482,0,0,0,1.2,3.609,1.457,1.457,0,0,1,.31.474,1.211,1.211,0,0,1-.019.548l-.4,1.458a.63.63,0,0,1-.327.456.743.743,0,0,1-.584.019,5.49,5.49,0,0,1-2.807-2.734,9.207,9.207,0,0,1-.947-4.3,10.318,10.318,0,0,1,1.458-5.249,11.816,11.816,0,0,1,4.374-4.374,14.367,14.367,0,0,1,7.29-1.823A12.222,12.222,0,0,1,325.15,779.527Z"
                  transform="translate(-305.941 -777.998)"/>
        </g>
    </g>
</svg>
