<svg xmlns="http://www.w3.org/2000/svg" width="60" height="60" viewBox="0 0 60 60">
    <defs>
        <style>.red-a{fill:#ff5700;}.red-b{fill:#fff;}</style>
    </defs>
    <g transform="translate(0.067 0.059)">
        <g transform="translate(0 0)">
            <rect class="red-a" width="60" height="60" rx="13" transform="translate(-0.067 -0.059)"/>
            <g transform="translate(9.061 13.221)">
                <path class="red-b"
                      d="M270.6,868.781a1.528,1.528,0,0,1,.047.234,4.69,4.69,0,0,1-.888,2.757,5.248,5.248,0,0,1-1.962,1.822,8.7,8.7,0,0,1,.093,1.215,9.264,9.264,0,0,1-.537,3.107,11.358,11.358,0,0,1-1.472,2.827,14.868,14.868,0,0,1-4.392,3.785,19.457,19.457,0,0,1-5.326,2.149,24.747,24.747,0,0,1-6.027.748,23.321,23.321,0,0,1-8.831-1.681,14.792,14.792,0,0,1-7.382-5.934,9.166,9.166,0,0,1-1.448-5,7.6,7.6,0,0,1,.093-1.168,5.492,5.492,0,0,1-1.916-1.776,5.107,5.107,0,0,1-.888-2.71,4.129,4.129,0,0,1,.374-1.916,6.1,6.1,0,0,1,1.121-1.682,5.163,5.163,0,0,1,1.612-1.168,4.466,4.466,0,0,1,1.892-.42h.514a5.017,5.017,0,0,1,1.962.374h.047a5.476,5.476,0,0,1,1.589.888,2.27,2.27,0,0,1,.514-.232,21.43,21.43,0,0,1,9.718-2.663,10.926,10.926,0,0,1,1.028-4.906,5.674,5.674,0,0,1,1.355-1.635,4.435,4.435,0,0,1,1.869-.934h.047a8.608,8.608,0,0,1,1.589-.14,11.256,11.256,0,0,1,4.112.842,4.8,4.8,0,0,1,2.383-1.917V853.6a5.9,5.9,0,0,1,1.775-.279,4.122,4.122,0,0,1,1.869.419,4.242,4.242,0,0,1,2.126,1.682,4.6,4.6,0,0,1,.818,2.616v.56a4.508,4.508,0,0,1-1.612,3.014,4.753,4.753,0,0,1-3.2,1.238H262.7a4.641,4.641,0,0,1-3.037-1.494,4.372,4.372,0,0,1-1.308-3.132l.047-.186a8.769,8.769,0,0,0-3.411-.889l-.514.047a2.426,2.426,0,0,0-1.168.42,2.343,2.343,0,0,0-.841.981,8.526,8.526,0,0,0-.748,3.785,22.3,22.3,0,0,1,9.531,2.663l.28.186a3.285,3.285,0,0,1,.654-.466,5.118,5.118,0,0,1,2.943-.888,5.505,5.505,0,0,1,1.4.186h.047a5.429,5.429,0,0,1,2.733,1.729A5.085,5.085,0,0,1,270.6,868.781Zm-33.967-1.962a3.082,3.082,0,0,0-1.355-.374l-.28.047a2.572,2.572,0,0,0-1.775.724,2.442,2.442,0,0,0-.841,1.752v.14a2.3,2.3,0,0,0,.374,1.215,2.07,2.07,0,0,0,.607.7A11.89,11.89,0,0,1,236.63,866.818Zm28.688,8.083a6.9,6.9,0,0,0-1.4-4.158,12.534,12.534,0,0,0-3.177-2.945,16.119,16.119,0,0,0-3.971-1.869h-.047c-.53-.156-1.059-.3-1.589-.421a21.956,21.956,0,0,0-4.953-.56,22.466,22.466,0,0,0-6.588.981,13.737,13.737,0,0,0-7.149,4.812,7.108,7.108,0,0,0-1.168,5.794A8.4,8.4,0,0,0,237,879.714a11.968,11.968,0,0,0,2.757,2.336l.7.42a19.546,19.546,0,0,0,9.718,2.383,15.462,15.462,0,0,0,1.729-.093,18.174,18.174,0,0,0,9.578-3.317,10.427,10.427,0,0,0,2.336-2.336,8.064,8.064,0,0,0,1.355-2.991C265.239,875.712,265.286,875.307,265.318,874.9Zm-21.492.42a2.626,2.626,0,0,0,1.822-.724,2.286,2.286,0,0,0,.794-1.752v-.187a2.289,2.289,0,0,0-.794-1.752,2.574,2.574,0,0,0-1.775-.724,3.488,3.488,0,0,0-.561.047,2.63,2.63,0,0,0-1.191.609,2.3,2.3,0,0,0-.724,1.121,2.121,2.121,0,0,0-.14.748,2.631,2.631,0,0,0,.491,1.542,2.339,2.339,0,0,0,1.285.934A2.543,2.543,0,0,0,243.825,875.322Zm13.5,3.177a1.155,1.155,0,0,0-.677-.234,1.118,1.118,0,0,0-.631.187,11.6,11.6,0,0,1-6.074,1.682,10.292,10.292,0,0,1-4.579-1.028v-.047a2.922,2.922,0,0,1-.7-.421,1.637,1.637,0,0,0-.467-.234.928.928,0,0,0-.981,0,1.159,1.159,0,0,0-.584.467,1.234,1.234,0,0,0-.21.677,1.352,1.352,0,0,0,.164.654,1.231,1.231,0,0,0,.491.491,12.008,12.008,0,0,0,6.822,1.962,14.884,14.884,0,0,0,6.308-1.4l.934-.467a2.044,2.044,0,0,0,.467-.42,1.652,1.652,0,0,0,.28-.513,1.407,1.407,0,0,0,.047-.327,1.354,1.354,0,0,0-.117-.513A1.17,1.17,0,0,0,257.328,878.5Zm1.775-5.794a2.552,2.552,0,0,1-.514,1.542,2.455,2.455,0,0,1-1.308.934,2.121,2.121,0,0,1-.748.14,2.689,2.689,0,0,1-1.659-.584,2.264,2.264,0,0,1-.911-1.518,2.358,2.358,0,0,1-.047-.467,2.633,2.633,0,0,1,1.682-2.43,3.085,3.085,0,0,1,.888-.14,2.619,2.619,0,0,1,1.518.467,2.512,2.512,0,0,1,.958,1.262A2.246,2.246,0,0,1,259.1,872.705Zm1.822-14.718v.139a2.236,2.236,0,0,0,.7,1.5,2.057,2.057,0,0,0,1.5.655h.14a2.262,2.262,0,0,0,1.542-.631,1.972,1.972,0,0,0,.7-1.52v-.139a2.12,2.12,0,0,0-.7-1.566,2.23,2.23,0,0,0-1.589-.676,1.378,1.378,0,0,0-.514.092h-.047a2.375,2.375,0,0,0-1.215.8A2.044,2.044,0,0,0,260.926,857.988Zm7.055,11.027a2.133,2.133,0,0,0-.28-1.028,2.418,2.418,0,0,0-1.028-1.1,2.994,2.994,0,0,0-1.5-.4,3.636,3.636,0,0,0-1.448.28,13.094,13.094,0,0,1,3.317,4.252,2.776,2.776,0,0,0,.607-.748A2.63,2.63,0,0,0,267.981,869.014Z"
                      transform="translate(-229.757 -853.319)"/>
            </g>
        </g>
    </g>
</svg>
