<svg xmlns="http://www.w3.org/2000/svg" width="60" height="60" viewBox="0 0 60 60">
  <g id="Group_888" data-name="Group 888" transform="translate(0.135 0.336)">
    <rect id="Rectangle_28" data-name="Rectangle 28" width="60" height="60" rx="6" transform="translate(-0.135 -0.336)" fill="#0693ff"/>
    <g id="Group_301" data-name="Group 301" transform="translate(11.585 11.322)">
      <path id="Path_414" data-name="Path 414" d="M319.856,1066.451a17.816,17.816,0,0,1,15.5,8.856,17.394,17.394,0,0,1,2.44,9.062,17.951,17.951,0,0,1-2.44,9.061,17.953,17.953,0,0,1-31,0,17.931,17.931,0,0,1-2.44-9.061,17.4,17.4,0,0,1,2.44-9.062,17.725,17.725,0,0,1,6.438-6.438,18.1,18.1,0,0,1,9.061-2.459Zm8.733,10.282q0-.491-.368-.574a1.409,1.409,0,0,0-.739.041l-.368.123-18.2,7.135a1.625,1.625,0,0,0-.432.308.47.47,0,0,0-.144.431.824.824,0,0,0,.41.574l.368.2,4.51,1.516,10.865-6.889.287-.122q.327-.123.328.122l-.246.369-8.528,7.709v.082l2.788,2.214,4.591,3.484a1.254,1.254,0,0,0,.984.082,1.121,1.121,0,0,0,.534-.368,2.58,2.58,0,0,1,.164-.287Z" transform="translate(-301.918 -1066.41)" fill="#fff"/>
    </g>
  </g>
</svg>
