<svg xmlns="http://www.w3.org/2000/svg" width="60" height="60" viewBox="0 0 60 60"><defs><style>.a{fill:#8000ff;}.b{fill:#fff;}</style></defs><g transform="translate(0.067 -0.067)"><rect class="a" width="60" height="60" rx="6" transform="translate(-0.067 0.067)"/><g transform="translate(19.472 12.849)"><path class="b" d="M107.548,1165.02a9.189,9.189,0,0,0,5.066-1.626v5.217a19.528,19.528,0,0,1-3.875,1.38,18.6,18.6,0,0,1-3.761.435,11.018,11.018,0,0,1-1.928-.15q-.719-.152-1.663-.454a8.921,8.921,0,0,1-2.987-1.606,5.812,5.812,0,0,1-1.739-2.249,9.605,9.605,0,0,1-.491-3.478v-11.606h-4.5v-4.688a11.45,11.45,0,0,0,3.743-1.815,9,9,0,0,0,2.249-2.835,13.122,13.122,0,0,0,1.191-4.233h4.725v7.673h7.712v5.9h-7.712v10.774a4.512,4.512,0,0,0,.189,1.3,2.477,2.477,0,0,0,.491.775,3.639,3.639,0,0,0,.756.643A4.991,4.991,0,0,0,107.548,1165.02Z" transform="translate(-91.67 -1137.312)"/></g></g></svg>