<svg xmlns="http://www.w3.org/2000/svg" xmlns:xlink="http://www.w3.org/1999/xlink" width="59" height="59"
     viewBox="0 0 59 59">
    <defs>
        <style>.tw-a{fill:#fff;}.tw-b{fill:#00dcff;}.tw-c{fill:rgba(0,0,0,0);}.tw-d{clip-path:url(#a);}</style>
        <clipPath id="a">
            <path class="tw-a"
                  d="M26.192,2.517a10.73,10.73,0,0,1-3.085.846A5.4,5.4,0,0,0,25.469.393a10.832,10.832,0,0,1-3.414,1.3A5.377,5.377,0,0,0,12.9,6.6,15.255,15.255,0,0,1,1.825.982,5.379,5.379,0,0,0,3.488,8.154,5.374,5.374,0,0,1,1.054,7.48v.067a5.378,5.378,0,0,0,4.309,5.269A5.442,5.442,0,0,1,3.948,13a5.157,5.157,0,0,1-1.011-.1,5.376,5.376,0,0,0,5.018,3.732,10.78,10.78,0,0,1-6.673,2.3A11.419,11.419,0,0,1,0,18.858a15.188,15.188,0,0,0,8.236,2.417A15.182,15.182,0,0,0,23.523,5.989l-.018-.7A10.73,10.73,0,0,0,26.192,2.517Z"
                  transform="translate(0 0)"/>
        </clipPath>
    </defs>
    <g transform="translate(-0.37 -0.202)">
        <rect class="tw-b" width="59" height="59" rx="6" transform="translate(0.37 0.202)"/>
        <g transform="translate(6.563 7.658)">
            <g transform="translate(0 0)">
                <g transform="translate(0 0)">
                    <rect class="tw-c" width="39.897" height="38.088" transform="translate(0.932 0.614)"/>
                    <path class="tw-b"
                          d="M23.444,0C36.392,0,46.888,10.02,46.888,22.381s-10.5,22.381-23.444,22.381S0,34.742,0,22.381,10.5,0,23.444,0Z"
                          transform="translate(0 0)"/>
                </g>
            </g>
            <g class="tw-d" transform="translate(10.858 11.243)">
                <g transform="translate(1.541 -1.541)">
                    <rect class="tw-c" width="33.896" height="33.896" transform="translate(7.704 27.733)"/>
                    <rect class="tw-a" width="33.896" height="33.896" transform="translate(0)"/>
                </g>
            </g>
        </g>
    </g>
</svg>
