<svg  xmlns="http://www.w3.org/2000/svg" width="60" height="60" viewBox="0 0 60 60">
  <rect  width="60" height="60" rx="6" fill="#5c66c1"/>
  <path  d="M462.324,1237.451a11.2,11.2,0,0,1-2.038-.36,12.6,12.6,0,0,1-2.8-1.158,13.1,13.1,0,0,1-3.037-2.4,27.042,27.042,0,0,1-3.2-4.116,52.078,52.078,0,0,1-2.638-4.516q-.959-1.8-1.838-3.638l-.68-1.519-.08-.32a.6.6,0,0,1,.1-.56,1.072,1.072,0,0,1,.619-.28l.4-.08h5l.28.04a2.381,2.381,0,0,1,.521.26,1.008,1.008,0,0,1,.319.38l.12.2.521,1.279q.679,1.477,1.358,2.637a18.226,18.226,0,0,0,2.4,3.477q.8.839,1.358.52.48-.24.64-1.558a12.609,12.609,0,0,0,.12-2.358l-.04-1.639a9.539,9.539,0,0,0-.12-1,2.721,2.721,0,0,0-.4-.919,2.113,2.113,0,0,0-1.519-.8q-.24,0,.04-.381a1.791,1.791,0,0,1,.719-.578,4.7,4.7,0,0,1,1.838-.4,23.5,23.5,0,0,1,2.519-.04q1,0,1.559.04c.267.054.572.12.919.2a1.342,1.342,0,0,1,.879.519,2.15,2.15,0,0,1,.32,1.119q.039.479,0,1.758c-.054,1.066-.08,1.893-.08,2.478v1a6.332,6.332,0,0,0,0,1,2.935,2.935,0,0,0,.2.938,1.213,1.213,0,0,0,.479.579c.267.188.626.067,1.079-.358a15.817,15.817,0,0,0,2.6-3.558,29.638,29.638,0,0,0,1.358-2.757l.56-1.359.12-.2a1.245,1.245,0,0,1,.34-.36.812.812,0,0,1,.459-.12l5.474-.04h.44a3.39,3.39,0,0,1,.8.08.779.779,0,0,1,.6.439q.439,1.159-2.718,5.354.719-.959-1.758,2.278a11.046,11.046,0,0,0-.959,1.438,1.358,1.358,0,0,0-.22.979,2.517,2.517,0,0,0,.579.979,13.235,13.235,0,0,0,1.358,1.318q1.238,1.16,2.118,2.158a12.269,12.269,0,0,1,1.039,1.319c-.08-.106.021.066.3.519a1.556,1.556,0,0,1,.3,1.159.951.951,0,0,1-.48.6,2.1,2.1,0,0,1-.719.28l-.36.04-4.676.08h-.32a3.191,3.191,0,0,1-.839-.12,4.347,4.347,0,0,1-1.159-.6,9.114,9.114,0,0,1-1.718-1.639q-1.239-1.358-1.6-1.679-.8-.758-1.379-.579a1.519,1.519,0,0,0-.9,1.02,5.168,5.168,0,0,0-.32,1.438l-.08,1.079a.951.951,0,0,1-.24.6,1.413,1.413,0,0,1-.6.319l-.36.08h-2.876Z" transform="translate(-433.448 -1197.793)" fill="#fff"/>
</svg>
