<svg xmlns="http://www.w3.org/2000/svg" width="59" height="60" viewBox="0 0 59 60">
  <g transform="translate(-0.496 -0.034)">
    <rect width="59" height="60" rx="6" transform="translate(0.496 0.034)" fill="red"/>
    <g  transform="translate(14.665 18.689)">
      <path d="M260.816,1370.53q0,2.552-.035,3.18-.14,2.063-.28,3.005a7.373,7.373,0,0,1-.454,1.713,3.428,3.428,0,0,1-.839,1.328,4.027,4.027,0,0,1-2.132,1.119q-6.641.49-14.155.349-4.4-.071-6.273-.158a20.967,20.967,0,0,1-2.779-.262,4.089,4.089,0,0,1-2.062-1.083,4.748,4.748,0,0,1-.979-1.921,6.559,6.559,0,0,1-.262-1.083q-.088-.56-.157-1.678a72.105,72.105,0,0,1,0-9.017l.21-1.713a8.124,8.124,0,0,1,.384-1.677,3.836,3.836,0,0,1,.909-1.4,4.46,4.46,0,0,1,2.062-1.048,35.47,35.47,0,0,1,4.246-.28q3.372-.1,7.322-.1t7.322.123q3.372.123,4.281.262a4.255,4.255,0,0,1,1.346.524,3.456,3.456,0,0,1,1.031.909,6.347,6.347,0,0,1,.8,1.887,10.6,10.6,0,0,1,.349,1.992q0,.176.1,1.852C260.8,1367.769,260.816,1368.835,260.816,1370.53Zm-14.085,1.712q2.76-1.4,3.914-2.027l-8.213-4.334v8.633Q243.865,1373.714,246.731,1372.242Z" transform="translate(-230.27 -1359.8)" fill="#fff"/>
    </g>
  </g>
</svg>
